<?xml version="1.0" encoding="UTF-8"?>
<svg version="1.1" xmlns="http://www.w3.org/2000/svg" width="60" height="60">
<path d="M0 0 C0.87430664 -0.00953201 1.74861328 -0.01906403 2.64941406 -0.02888489 C4.06818848 -0.02751778 4.06818848 -0.02751778 5.515625 -0.02612305 C6.48467773 -0.03040817 7.45373047 -0.0346933 8.45214844 -0.03910828 C10.50324725 -0.04485738 12.55436646 -0.04534758 14.60546875 -0.04101562 C17.75295572 -0.03785452 20.89950427 -0.06131173 24.046875 -0.08666992 C26.03645714 -0.08894264 28.02604182 -0.08964654 30.015625 -0.08862305 C30.96147461 -0.09783279 31.90732422 -0.10704254 32.88183594 -0.11653137 C33.75614258 -0.11030258 34.63044922 -0.10407379 35.53125 -0.09765625 C36.68802246 -0.09860039 36.68802246 -0.09860039 37.86816406 -0.0995636 C38.49432617 0.0239296 39.12048828 0.14742279 39.765625 0.2746582 C42.15510697 3.85888116 42.06795668 5.64698417 42.1796875 9.91137695 C42.23769531 11.85947266 42.23769531 11.85947266 42.296875 13.84692383 C42.32833017 15.21866393 42.35957751 16.59040881 42.390625 17.9621582 C42.42881697 19.34564605 42.46786942 20.72911043 42.5078125 22.11254883 C42.60223017 25.49978271 42.68780618 28.88700889 42.765625 32.2746582 C43.53390625 32.38938477 44.3021875 32.50411133 45.09375 32.62231445 C48.76309449 33.51819242 50.31302138 35.48141519 52.765625 38.2746582 C54.74012169 42.22365157 54.20332998 46.97055924 53.765625 51.2746582 C51.57126491 55.82592357 49.35029688 58.22166128 44.765625 60.2746582 C41.05255738 60.70901117 37.36350774 60.67101976 33.62890625 60.63793945 C32.55311813 60.63843796 31.47733002 60.63893646 30.36894226 60.63945007 C28.10035347 60.63711358 25.8317619 60.6274102 23.56323242 60.61083984 C20.08033257 60.5871732 16.59819459 60.59029149 13.11523438 60.59692383 C10.91145375 60.59134945 8.70767635 60.58424109 6.50390625 60.57543945 C4.93519524 60.57680656 4.93519524 60.57680656 3.33479309 60.57820129 C2.37006577 60.56866928 1.40533844 60.55913727 0.41137695 60.54931641 C-0.86505928 60.54240532 -0.86505928 60.54240532 -2.1672821 60.53535461 C-4.234375 60.2746582 -4.234375 60.2746582 -6.234375 58.2746582 C-6.48834229 55.92163086 -6.48834229 55.92163086 -6.49316406 52.9387207 C-6.49946838 51.82416504 -6.50577271 50.70960937 -6.51226807 49.5612793 C-6.5082196 48.35294434 -6.50417114 47.14460938 -6.5 45.8996582 C-6.50191345 44.66425293 -6.5038269 43.42884766 -6.50579834 42.15600586 C-6.5075111 38.86874413 -6.49944199 35.58167033 -6.48828125 32.29443359 C-6.48437897 30.27671291 -6.48826671 28.25916619 -6.49511719 26.24145508 C-6.50743504 22.37743992 -6.50598478 18.51368392 -6.5 14.6496582 C-6.50404846 13.44132324 -6.50809692 12.23298828 -6.51226807 10.98803711 C-6.50596375 9.87348145 -6.49965942 8.75892578 -6.49316406 7.6105957 C-6.49157288 6.62623535 -6.48998169 5.641875 -6.48834229 4.62768555 C-6.02151514 0.30249445 -3.83068274 0.02288625 0 0 Z " fill="#50515D" transform="translate(6.234375,-0.274658203125)"/>
<path d="M0 0 C0.87430664 -0.00953201 1.74861328 -0.01906403 2.64941406 -0.02888489 C4.06818848 -0.02751778 4.06818848 -0.02751778 5.515625 -0.02612305 C6.48467773 -0.03040817 7.45373047 -0.0346933 8.45214844 -0.03910828 C10.50324725 -0.04485738 12.55436646 -0.04534758 14.60546875 -0.04101562 C17.75295572 -0.03785452 20.89950427 -0.06131173 24.046875 -0.08666992 C26.03645714 -0.08894264 28.02604182 -0.08964654 30.015625 -0.08862305 C30.96147461 -0.09783279 31.90732422 -0.10704254 32.88183594 -0.11653137 C33.75614258 -0.11030258 34.63044922 -0.10407379 35.53125 -0.09765625 C36.68802246 -0.09860039 36.68802246 -0.09860039 37.86816406 -0.0995636 C38.49432617 0.0239296 39.12048828 0.14742279 39.765625 0.2746582 C42.15510697 3.85888116 42.06795668 5.64698417 42.1796875 9.91137695 C42.23769531 11.85947266 42.23769531 11.85947266 42.296875 13.84692383 C42.32833017 15.21866393 42.35957751 16.59040881 42.390625 17.9621582 C42.42881697 19.34564605 42.46786942 20.72911043 42.5078125 22.11254883 C42.60223017 25.49978271 42.68780618 28.88700889 42.765625 32.2746582 C43.53390625 32.38938477 44.3021875 32.50411133 45.09375 32.62231445 C48.76309449 33.51819242 50.31302138 35.48141519 52.765625 38.2746582 C54.74012169 42.22365157 54.20332998 46.97055924 53.765625 51.2746582 C51.62915975 55.7058454 49.38984978 58.5036785 44.765625 60.2746582 C41.08424466 60.50864424 37.44857729 60.44880831 33.765625 60.2746582 C33.765625 59.6146582 33.765625 58.9546582 33.765625 58.2746582 C33.0025 58.0477832 32.239375 57.8209082 31.453125 57.5871582 C27.95744949 55.87996784 27.17865843 54.91879706 25.765625 51.2746582 C25.15117871 46.84524319 24.68339342 42.37277767 26.78515625 38.2980957 C28.8319216 35.78756176 31.07717285 34.06695963 33.765625 32.2746582 C35.415625 32.2746582 37.065625 32.2746582 38.765625 32.2746582 C38.435625 22.7046582 38.105625 13.1346582 37.765625 3.2746582 C24.235625 3.2746582 10.705625 3.2746582 -3.234375 3.2746582 C-3.234375 21.0946582 -3.234375 38.9146582 -3.234375 57.2746582 C6.995625 57.6046582 17.225625 57.9346582 27.765625 58.2746582 C28.095625 58.9346582 28.425625 59.5946582 28.765625 60.2746582 C24.10255486 60.32403099 19.43963627 60.36036448 14.77636719 60.38452148 C13.18942617 60.39459008 11.60250375 60.40824587 10.015625 60.42553711 C7.73693253 60.44974822 5.45848494 60.46113243 3.1796875 60.4699707 C2.46817535 60.48029327 1.75666321 60.49061584 1.02359009 60.50125122 C-0.73069165 60.50165242 -2.48434209 60.39668029 -4.234375 60.2746582 C-6.8424273 57.66660591 -6.48729286 56.57083881 -6.49316406 52.9387207 C-6.49946838 51.82416504 -6.50577271 50.70960937 -6.51226807 49.5612793 C-6.5082196 48.35294434 -6.50417114 47.14460938 -6.5 45.8996582 C-6.50191345 44.66425293 -6.5038269 43.42884766 -6.50579834 42.15600586 C-6.5075111 38.86874413 -6.49944199 35.58167033 -6.48828125 32.29443359 C-6.48437897 30.27671291 -6.48826671 28.25916619 -6.49511719 26.24145508 C-6.50743504 22.37743992 -6.50598478 18.51368392 -6.5 14.6496582 C-6.50404846 13.44132324 -6.50809692 12.23298828 -6.51226807 10.98803711 C-6.50596375 9.87348145 -6.49965942 8.75892578 -6.49316406 7.6105957 C-6.49157288 6.62623535 -6.48998169 5.641875 -6.48834229 4.62768555 C-6.02151514 0.30249445 -3.83068274 0.02288625 0 0 Z " fill="#020202" transform="translate(6.234375,-0.274658203125)"/>
<path d="M0 0 C1.5703125 1.55859375 1.5703125 1.55859375 3.125 3.4375 C3.90230469 4.36369141 3.90230469 4.36369141 4.6953125 5.30859375 C7.43153595 8.85585349 7.36964009 11.56431892 7 16 C4.96149003 19.78580423 2.89877487 23.05061257 -1 25 C-5.86232692 25.54897239 -8.01373745 25.5113954 -12.375 23.25 C-15.39536671 20.66111425 -16.69404868 18.77129709 -17.37109375 14.8515625 C-17.49783631 10.60195896 -17.22992322 8.40051142 -15.0625 4.625 C-11.17571929 0.62685022 -5.3426887 -1.78089623 0 0 Z " fill="#F3DC6E" transform="translate(51,33)"/>
<path d="M0 0 C1.6874269 0.00015917 3.37485866 0.00585622 5.06225586 0.01586914 C6.39189613 0.01799156 6.39189613 0.01799156 7.74839783 0.02015686 C10.59133215 0.02577324 13.43418892 0.03832848 16.27709961 0.05102539 C18.19962452 0.05603828 20.12215065 0.06060155 22.04467773 0.06469727 C26.7680151 0.07574798 31.49129419 0.09302356 36.21459961 0.11352539 C36.21459961 0.77352539 36.21459961 1.43352539 36.21459961 2.11352539 C24.00459961 2.44352539 11.79459961 2.77352539 -0.78540039 3.11352539 C-1.11540039 19.61352539 -1.44540039 36.11352539 -1.78540039 53.11352539 C-3.27040039 53.60852539 -3.27040039 53.60852539 -4.78540039 54.11352539 C-4.81066687 46.58382887 -4.8282318 39.05414319 -4.84033203 31.52441406 C-4.84537409 28.96060782 -4.85220753 26.39680448 -4.86083984 23.83300781 C-4.87291103 20.15697518 -4.87862981 16.48098041 -4.88305664 12.80493164 C-4.88821793 11.65078262 -4.89337921 10.49663361 -4.8986969 9.30751038 C-4.89877243 8.24648605 -4.89884796 7.18546173 -4.89892578 6.09228516 C-4.90114639 5.15296646 -4.903367 4.21364777 -4.90565491 3.24586487 C-4.69465077 -0.49563669 -3.93273749 0.11794408 0 0 Z " fill="#6A6B7C" transform="translate(6.785400390625,1.886474609375)"/>
<path d="M0 0 C9.9 0 19.8 0 30 0 C30 0.33 30 0.66 30 1 C28.35 1 26.7 1 25 1 C25.66 3.31 26.32 5.62 27 8 C18.09 8 9.18 8 0 8 C0 5.36 0 2.72 0 0 Z " fill="#CFE4F9" transform="translate(8,8)"/>
<path d="M0 0 C0 0.33 0 0.66 0 1 C-1.2375 1.226875 -2.475 1.45375 -3.75 1.6875 C-6.7508394 2.46431304 -8.04085819 3.03370801 -10.5 5.0625 C-12.57562182 9.1272594 -12.67461783 12.52151294 -12 17 C-10.7671112 19.89728868 -9.7754988 21.39683427 -7.3125 23.3125 C-3.84416773 24.34362581 -0.55274495 24.57917512 3 24 C6.43952148 21.90637823 8.78028175 19.88092169 10 16 C10.45466086 10.99873056 10.09261015 8.00893908 7 4 C6.01 3.34 5.02 2.68 4 2 C4.33 1.01 4.66 0.02 5 -1 C9.05671104 1.08317594 11.30287527 2.71252701 13 7 C13.66870393 12.34147654 13.67155391 16.60714745 11.3125 21.5 C8.08136783 24.99311586 6.13359364 26.86439023 1.234375 27.17578125 C-1.51781094 27.18636658 -4.25115752 27.12998029 -7 27 C-7 26.34 -7 25.68 -7 25 C-7.763125 24.773125 -8.52625 24.54625 -9.3125 24.3125 C-12.80817551 22.60530964 -13.58696657 21.64413886 -15 18 C-15.61444629 13.57058499 -16.08223158 9.09811947 -13.98046875 5.0234375 C-9.55357585 -0.4065278 -6.70677384 -1.26542903 0 0 Z " fill="#060603" transform="translate(47,33)"/>
<path d="M0 0 C0.71353638 0.00202423 1.42707275 0.00404846 2.16223145 0.00613403 C2.89091431 0.00517731 3.61959717 0.00422058 4.37036133 0.00323486 C5.91377855 0.00255318 7.45719861 0.00440666 9.00061035 0.00857544 C11.37095544 0.01392391 13.74111104 0.00863011 16.1114502 0.00222778 C17.60754437 0.00288857 19.10363842 0.00416973 20.59973145 0.00613403 C21.31326782 0.0041098 22.0268042 0.00208557 22.76196289 0 C27.76602953 0.02399462 27.76602953 0.02399462 28.88098145 1.13894653 C28.92191082 3.47192086 28.92339868 5.80599878 28.88098145 8.13894653 C28.22098145 8.13894653 27.56098145 8.13894653 26.88098145 8.13894653 C26.88098145 5.82894653 26.88098145 3.51894653 26.88098145 1.13894653 C16.98098145 1.46894653 7.08098145 1.79894653 -3.11901855 2.13894653 C-3.44901855 5.10894653 -3.77901855 8.07894653 -4.11901855 11.13894653 C5.78098145 11.13894653 15.68098145 11.13894653 25.88098145 11.13894653 C25.88098145 11.79894653 25.88098145 12.45894653 25.88098145 13.13894653 C21.64515817 13.18833281 17.4094868 13.22465916 13.17346191 13.24880981 C11.73202598 13.25887616 10.29061049 13.27253034 8.84924316 13.28982544 C6.77904211 13.31404665 4.70911068 13.32542295 2.63879395 13.33425903 C0.76925049 13.34996948 0.76925049 13.34996948 -1.13806152 13.36599731 C-4.11901855 13.13894653 -4.11901855 13.13894653 -6.11901855 11.13894653 C-6.3494873 8.79129028 -6.3494873 8.79129028 -6.30651855 6.07644653 C-6.30007324 5.17796997 -6.29362793 4.27949341 -6.2869873 3.35379028 C-5.96705004 -0.86491737 -3.70126882 0.01774767 0 0 Z " fill="#0B0B0D" transform="translate(12.1190185546875,5.861053466796875)"/>
<path d="M0 0 C9.9 0 19.8 0 30 0 C30.33 3.3 30.66 6.6 31 10 C20.44 10 9.88 10 -1 10 C-1 9.67 -1 9.34 -1 9 C7.58 8.67 16.16 8.34 25 8 C24.67 6.02 24.34 4.04 24 2 C16.08 1.67 8.16 1.34 0 1 C0 0.67 0 0.34 0 0 Z " fill="#798590" transform="translate(9,7)"/>
<path d="M0 0 C1.43352212 0.00015908 2.86704998 0.00585132 4.30053711 0.01586914 C5.43041298 0.01799156 5.43041298 0.01799156 6.58311462 0.02015686 C8.99807646 0.02577163 11.41294687 0.03832656 13.82788086 0.05102539 C15.46134307 0.05603849 17.09480672 0.06060173 18.72827148 0.06469727 C22.74067671 0.07574585 26.75301326 0.09302033 30.76538086 0.11352539 C30.43538086 0.77352539 30.10538086 1.43352539 29.76538086 2.11352539 C13.92538086 2.60852539 13.92538086 2.60852539 -2.23461914 3.11352539 C-2.56461914 6.74352539 -2.89461914 10.37352539 -3.23461914 14.11352539 C-3.56461914 14.11352539 -3.89461914 14.11352539 -4.23461914 14.11352539 C-4.26147852 11.96775903 -4.28095002 9.82189894 -4.29711914 7.67602539 C-4.3087207 6.48106445 -4.32032227 5.28610352 -4.33227539 4.05493164 C-4.19556441 -0.0628032 -4.16489563 0.14617529 0 0 Z " fill="#4A4B56" transform="translate(9.234619140625,3.886474609375)"/>
<path d="M0 0 C-1.78422253 1.87812898 -3.32729749 3.19957164 -5.5625 4.5625 C-8.77034974 7.77034974 -8.9572692 10.45950398 -9.54296875 14.85546875 C-9.69378906 15.56316406 -9.84460937 16.27085938 -10 17 C-10.66 17.33 -11.32 17.66 -12 18 C-13.74221711 14.51556578 -13.58675154 10.80112955 -13 7 C-9.76032213 1.14923847 -6.4195813 -0.13955612 0 0 Z " fill="#F9E99D" transform="translate(47,34)"/>
<path d="M0 0 C3.5 0.125 3.5 0.125 4.5 1.125 C4.625 4.125 4.625 4.125 4.5 7.125 C3.5 8.125 3.5 8.125 1.65234375 8.22265625 C-0.3984375 8.19010417 -2.44921875 8.15755208 -4.5 8.125 C-4.54241723 5.79205225 -4.54092937 3.45797433 -4.5 1.125 C-3.5 0.125 -3.5 0.125 0 0 Z " fill="#150B0C" transform="translate(36.5,21.875)"/>
<path d="M0 0 C0.66 0 1.32 0 2 0 C3.625 2.5 3.625 2.5 5 5 C3.02 5 1.04 5 -1 5 C-1 5.66 -1 6.32 -1 7 C0.98 7.66 2.96 8.32 5 9 C5 10.65 5 12.3 5 14 C4.01 14.33 3.02 14.66 2 15 C2 15.99 2 16.98 2 18 C1.34 18 0.68 18 0 18 C0 17.01 0 16.02 0 15 C-0.99 15 -1.98 15 -3 15 C-2.67 14.01 -2.34 13.02 -2 12 C-0.35 12.33 1.3 12.66 3 13 C3 12.01 3 11.02 3 10 C0.03 9.505 0.03 9.505 -3 9 C-3.33 7.35 -3.66 5.7 -4 4 C-2.68 3.34 -1.36 2.68 0 2 C0 1.34 0 0.68 0 0 Z " fill="#1C190C" transform="translate(45,37)"/>
<path d="M0 0 C0 0.33 0 0.66 0 1 C-1.2375 1.226875 -2.475 1.45375 -3.75 1.6875 C-6.7508394 2.46431304 -8.04085819 3.03370801 -10.5 5.0625 C-13.39151166 10.72504366 -12.24486546 16.93128086 -11 23 C-13.53241856 20.70499568 -14.85854151 18.82371404 -15.44140625 15.4296875 C-15.63700218 10.79848066 -15.69999841 7.14378592 -12.6875 3.4375 C-7.97365487 -0.83784791 -6.19736183 -1.16931355 0 0 Z " fill="#1E1D16" transform="translate(47,33)"/>
<path d="M0 0 C3.5 0.125 3.5 0.125 4.5 1.125 C4.54063832 2.79117115 4.542721 4.45888095 4.5 6.125 C4.17 4.805 3.84 3.485 3.5 2.125 C1.52 2.125 -0.46 2.125 -2.5 2.125 C-2.5 3.775 -2.5 5.425 -2.5 7.125 C-0.85 7.125 0.8 7.125 2.5 7.125 C2.5 7.455 2.5 7.785 2.5 8.125 C0.50045254 8.16754356 -1.50041636 8.16580783 -3.5 8.125 C-4.5 7.125 -4.5 7.125 -4.625 4.125 C-4.44582419 -0.1752195 -4.39475968 0.1569557 0 0 Z " fill="#060607" transform="translate(10.5,45.875)"/>
<path d="M0 0 C3.5 0.125 3.5 0.125 4.5 1.125 C4.54063832 2.79117115 4.542721 4.45888095 4.5 6.125 C4.17 4.805 3.84 3.485 3.5 2.125 C1.52 2.125 -0.46 2.125 -2.5 2.125 C-2.5 3.775 -2.5 5.425 -2.5 7.125 C-0.85 7.125 0.8 7.125 2.5 7.125 C2.5 7.455 2.5 7.785 2.5 8.125 C0.50045254 8.16754356 -1.50041636 8.16580783 -3.5 8.125 C-4.5 7.125 -4.5 7.125 -4.625 4.125 C-4.44582419 -0.1752195 -4.39475968 0.1569557 0 0 Z " fill="#060607" transform="translate(10.5,33.875)"/>
<path d="M0 0 C3.5 0.125 3.5 0.125 4.5 1.125 C4.54063832 2.79117115 4.542721 4.45888095 4.5 6.125 C4.17 4.805 3.84 3.485 3.5 2.125 C1.52 2.125 -0.46 2.125 -2.5 2.125 C-2.5 3.775 -2.5 5.425 -2.5 7.125 C-0.85 7.125 0.8 7.125 2.5 7.125 C2.5 7.455 2.5 7.785 2.5 8.125 C0.50045254 8.16754356 -1.50041636 8.16580783 -3.5 8.125 C-4.5 7.125 -4.5 7.125 -4.625 4.125 C-4.44582419 -0.1752195 -4.39475968 0.1569557 0 0 Z " fill="#060607" transform="translate(10.5,21.875)"/>
<path d="M0 0 C1.134375 0.020625 2.26875 0.04125 3.4375 0.0625 C3.7675 0.7225 4.0975 1.3825 4.4375 2.0625 C2.1275 2.0625 -0.1825 2.0625 -2.5625 2.0625 C-2.5625 3.7125 -2.5625 5.3625 -2.5625 7.0625 C-0.5825 7.0625 1.3975 7.0625 3.4375 7.0625 C3.4375 7.3925 3.4375 7.7225 3.4375 8.0625 C0.7975 8.0625 -1.8425 8.0625 -4.5625 8.0625 C-4.60491723 5.72955225 -4.60342937 3.39547433 -4.5625 1.0625 C-3.5625 0.0625 -3.5625 0.0625 0 0 Z " fill="#0B0B0C" transform="translate(23.5625,45.9375)"/>
<path d="M0 0 C1.134375 0.020625 2.26875 0.04125 3.4375 0.0625 C3.7675 0.7225 4.0975 1.3825 4.4375 2.0625 C2.1275 2.0625 -0.1825 2.0625 -2.5625 2.0625 C-2.5625 3.7125 -2.5625 5.3625 -2.5625 7.0625 C-0.5825 7.0625 1.3975 7.0625 3.4375 7.0625 C3.4375 7.3925 3.4375 7.7225 3.4375 8.0625 C0.7975 8.0625 -1.8425 8.0625 -4.5625 8.0625 C-4.60491723 5.72955225 -4.60342937 3.39547433 -4.5625 1.0625 C-3.5625 0.0625 -3.5625 0.0625 0 0 Z " fill="#0B0B0C" transform="translate(23.5625,33.9375)"/>
<path d="M0 0 C1.134375 0.020625 2.26875 0.04125 3.4375 0.0625 C3.7675 0.7225 4.0975 1.3825 4.4375 2.0625 C2.1275 2.0625 -0.1825 2.0625 -2.5625 2.0625 C-2.5625 3.7125 -2.5625 5.3625 -2.5625 7.0625 C-0.5825 7.0625 1.3975 7.0625 3.4375 7.0625 C3.4375 7.3925 3.4375 7.7225 3.4375 8.0625 C0.7975 8.0625 -1.8425 8.0625 -4.5625 8.0625 C-4.60491723 5.72955225 -4.60342937 3.39547433 -4.5625 1.0625 C-3.5625 0.0625 -3.5625 0.0625 0 0 Z " fill="#0B0B0C" transform="translate(23.5625,21.9375)"/>
<path d="M0 0 C-1.26941497 3.91402949 -2.51167694 5.79072873 -6 8 C-6.66 7.67 -7.32 7.34 -8 7 C-8 5 -8 5 -5.6875 2.375 C-3 0 -3 0 0 0 Z " fill="#110F07" transform="translate(59,51)"/>
<path d="M0 0 C0.66 0.99 1.32 1.98 2 3 C1.01 3.33 0.02 3.66 -1 4 C-1 4.99 -1 5.98 -1 7 C-1.66 7 -2.32 7 -3 7 C-3 6.01 -3 5.02 -3 4 C-3.99 4 -4.98 4 -6 4 C-5.67 3.01 -5.34 2.02 -5 1 C-3.35 1.33 -1.7 1.66 0 2 C0 1.34 0 0.68 0 0 Z " fill="#302C15" transform="translate(48,48)"/>
<path d="M0 0 C1.98 0 3.96 0 6 0 C6 1.32 6 2.64 6 4 C4.02 4 2.04 4 0 4 C0 2.68 0 1.36 0 0 Z " fill="#BBCEE0" transform="translate(8,48)"/>
<path d="M0 0 C1.98 0 3.96 0 6 0 C6 1.32 6 2.64 6 4 C4.02 4 2.04 4 0 4 C0 2.68 0 1.36 0 0 Z " fill="#BBCEE0" transform="translate(8,36)"/>
<path d="M0 0 C1.98 0 3.96 0 6 0 C6 1.32 6 2.64 6 4 C4.02 4 2.04 4 0 4 C0 2.68 0 1.36 0 0 Z " fill="#E0646F" transform="translate(33,24)"/>
<path d="M0 0 C1.98 0 3.96 0 6 0 C6 1.32 6 2.64 6 4 C4.02 4 2.04 4 0 4 C0 2.68 0 1.36 0 0 Z " fill="#BBCEE0" transform="translate(8,24)"/>
<path d="M0 0 C1.65 0 3.3 0 5 0 C5 1.32 5 2.64 5 4 C3.35 4 1.7 4 0 4 C0 2.68 0 1.36 0 0 Z " fill="#C8DEF2" transform="translate(21,48)"/>
<path d="M0 0 C1.65 0 3.3 0 5 0 C5 1.32 5 2.64 5 4 C3.35 4 1.7 4 0 4 C0 2.68 0 1.36 0 0 Z " fill="#C8DEF2" transform="translate(21,36)"/>
<path d="M0 0 C1.65 0 3.3 0 5 0 C5 1.32 5 2.64 5 4 C3.35 4 1.7 4 0 4 C0 2.68 0 1.36 0 0 Z " fill="#C8DEF2" transform="translate(21,24)"/>
</svg>
